<svg xmlns="http://www.w3.org/2000/svg" data-name="Layer 1" width="781.67004" height="539.71693" viewBox="0 0 781.67004 539.71693" xmlns:xlink="http://www.w3.org/1999/xlink">
  <path d="M371.36059,535.197H307.26200a4.11248,4.11248,0,0,1-4.10828-4.10828v-40.4453a4.11248,4.11248,0,0,1,4.10828-4.10828h64.09863a4.11248,4.11248,0,0,1,4.10828,4.10828v40.4453A4.11248,4.11248,0,0,1,371.36059,535.197Z" transform="translate(-209.16498 -180.14154)" fill="#0d6efd"/>
  <path d="M386.341,535.197H307.26211a4.608,4.608,0,0,1-4.60339-4.60339V490.14159a4.608,4.608,0,0,1,4.60339-4.60339H386.341a4.608,4.608,0,0,1,4.60339,4.60339V530.5935A4.608,4.608,0,0,1,386.341,535.197ZM307.26211,487.03854a3.10663,3.10663,0,0,0-3.10339,3.10339V530.5935a3.10662,3.10662,0,0,0,3.10339,3.10339H386.341a3.10661,3.10661,0,0,0,3.10339-3.10339V490.14193a3.10663,3.10663,0,0,0-3.10339-3.10339Z" transform="translate(-209.16498 -180.14154)" fill="#3f3d56"/>
  <path d="M339.09863,500.51325a2.50294,2.50294,0,0,0-2.5,2.5v10a2.50294,2.50294,0,0,0,2.5,2.5h15a2.50294,2.50294,0,0,0,2.5-2.5v-10a2.50294,2.50294,0,0,0-2.5-2.5Z" transform="translate(-209.16498 -180.14154)" fill="#fff"/>
  <path d="M397.69238,572.72736a9.45541,9.45541,0,0,1,12.619-8.62,9.45541,9.45541,0,1,0-5.17881,17.792A9.45541,9.45541,0,0,1,397.69238,572.72736Z" transform="translate(-209.16498 -180.14154)" fill="#e6e6e6"/>
  <rect x="320.66803" y="403.58072" width="247" height="146" fill="#e6e6e6"/>
  <rect x="335.66803" y="425.58072" width="77" height="102" fill="#fff"/>
  <rect x="428.66803" y="425.58072" width="126" height="102" fill="#fff"/>
  <rect x="350.66803" y="440.58072" width="15" height="15" fill="#0d6efd"/>
  <rect x="382.66803" y="440.58072" width="15" height="15" fill="#0d6efd"/>
  <rect x="350.66803" y="467.58072" width="15" height="15" fill="#0d6efd"/>
  <rect x="382.66803" y="467.58072" width="15" height="15" fill="#0d6efd"/>
  <rect x="350.66803" y="493.58072" width="15" height="15" fill="#0d6efd"/>
  <rect x="382.66803" y="493.58072" width="15" height="15" fill="#0d6efd"/>
  <rect x="445.66803" y="467.58072" width="90" height="15" fill="#0d6efd"/>
  <rect x="445.66803" y="493.58072" width="90" height="15" fill="#0d6efd"/>
  <rect x="445.66803" y="440.58072" width="90" height="15" fill="#0d6efd"/>
  <path d="M664.8335,573.72736a10.0558,10.0558,0,0,1-19.4388-3.32471,10.0558,10.0558,0,1,0,19.96327-3.42171A10.0555,10.0555,0,0,1,664.8335,573.72736Z" transform="translate(-209.16498 -180.14154)" fill="#e6e6e6"/>
  <rect x="167.66803" y="256.58072" width="304" height="193" fill="#e6e6e6"/>
  <rect x="182.66803" y="278.58072" width="274" height="149" fill="#fff"/>
  <rect x="195.66803" y="292.58072" width="15" height="15" fill="#0d6efd"/>
  <rect x="397.66803" y="292.58072" width="15" height="15" fill="#0d6efd"/>
  <rect x="229.66803" y="292.58072" width="15" height="15" fill="#0d6efd"/>
  <rect x="330.66803" y="292.58072" width="15" height="15" fill="#0d6efd"/>
  <rect x="263.66803" y="292.58072" width="15" height="15" fill="#0d6efd"/>
  <rect x="364.66803" y="292.58072" width="15" height="15" fill="#0d6efd"/>
  <rect x="297.66803" y="292.58072" width="15" height="15" fill="#0d6efd"/>
  <rect x="195.66803" y="323.58072" width="15" height="15" fill="#0d6efd"/>
  <rect x="397.66803" y="323.58072" width="15" height="15" fill="#0d6efd"/>
  <rect x="229.66803" y="323.58072" width="15" height="15" fill="#0d6efd"/>
  <rect x="330.66803" y="323.58072" width="15" height="15" fill="#0d6efd"/>
  <rect x="263.66803" y="323.58072" width="15" height="15" fill="#0d6efd"/>
  <rect x="364.66803" y="323.58072" width="15" height="15" fill="#0d6efd"/>
  <rect x="297.66803" y="323.58072" width="15" height="15" fill="#0d6efd"/>
  <rect x="195.66803" y="354.58072" width="15" height="15" fill="#0d6efd"/>
  <rect x="397.66803" y="354.58072" width="15" height="15" fill="#0d6efd"/>
  <rect x="229.66803" y="354.58072" width="15" height="15" fill="#0d6efd"/>
  <rect x="330.66803" y="354.58072" width="15" height="15" fill="#0d6efd"/>
  <rect x="263.66803" y="354.58072" width="15" height="15" fill="#0d6efd"/>
  <rect x="364.66803" y="354.58072" width="15" height="15" fill="#0d6efd"/>
  <rect x="297.66803" y="354.58072" width="15" height="15" fill="#0d6efd"/>
  <rect x="195.66803" y="385.58072" width="15" height="15" fill="#0d6efd"/>
  <rect x="397.66803" y="385.58072" width="15" height="15" fill="#0d6efd"/>
  <rect x="229.66803" y="385.58072" width="15" height="15" fill="#0d6efd"/>
  <rect x="330.66803" y="385.58072" width="15" height="15" fill="#0d6efd"/>
  <rect x="263.66803" y="385.58072" width="15" height="15" fill="#0d6efd"/>
  <rect x="364.66803" y="385.58072" width="15" height="15" fill="#0d6efd"/>
  <rect x="297.66803" y="385.58072" width="15" height="15" fill="#0d6efd"/>
  <path d="M757.66117,353.72147H701.92532a3.82345,3.82345,0,0,1-3.81928-3.81928V314.50507a3.82345,3.82345,0,0,1,3.81928-3.81928h55.73585a3.82345,3.82345,0,0,1,3.81928,3.81928v35.39712A3.82345,3.82345,0,0,1,757.66117,353.72147Z" transform="translate(-209.16498 -180.14154)" fill="#0d6efd"/>
  <path d="M483.34473,400.28857H451.00112a3.82345,3.82345,0,0,1-3.81928-3.81928V361.07217a3.82345,3.82345,0,0,1,3.81928-3.81928h32.34361a3.82344,3.82344,0,0,1,3.81927,3.81928v35.39712A3.82344,3.82344,0,0,1,483.34473,400.28857Z" transform="translate(-209.16498 -180.14154)" fill="#0d6efd"/>
  <rect x="215.50003" y="150" width="104" height="93" rx="17.87456" fill="#e6e6e6"/>
  <path d="M536.54364,368.89258a5.00588,5.00588,0,0,0-5,5v54a5.00589,5.00589,0,0,0,5,5h66a5.00589,5.00589,0,0,0,5-5v-54a5.00588,5.00588,0,0,0-5-5Z" transform="translate(-209.16498 -180.14154)" fill="#0d6efd"/>
  <circle cx="267.50003" cy="193" r="11" fill="#fff"/>
  <path d="M484.678,180.14154H456.04481a10.0113,10.0113,0,0,0-10,10v74a10.0113,10.0113,0,0,0,10,10h28.6332Z" transform="translate(-209.16498 -180.14154)" fill="#0d6efd"/>
  <rect x="383.36702" y="30" width="126" height="5" fill="#0d6efd"/>
  <rect x="286.36702" y="3" width="19" height="32" fill="#0d6efd"/>
  <rect x="286.36702" y="44" width="19" height="32" fill="#0d6efd"/>
  <circle cx="269.50003" cy="330" r="11" fill="#fff"/>
  <rect x="389.36702" y="66" width="8" height="11" fill="#0d6efd"/>
  <rect x="403.36702" y="66" width="8" height="11" fill="#0d6efd"/>
  <rect x="417.36702" y="66" width="8" height="11" fill="#0d6efd"/>
  <rect x="431.36702" y="66" width="8" height="11" fill="#0d6efd"/>
  <rect x="445.36702" y="66" width="8" height="11" fill="#0d6efd"/>
  <rect x="459.36702" y="66" width="8" height="11" fill="#0d6efd"/>
  <rect x="473.36702" y="66" width="8" height="11" fill="#0d6efd"/>
  <rect x="389.36702" y="83" width="8" height="11" fill="#0d6efd"/>
  <rect x="403.36702" y="83" width="8" height="11" fill="#0d6efd"/>
  <rect x="417.36702" y="83" width="8" height="11" fill="#0d6efd"/>
  <rect x="431.36702" y="83" width="8" height="11" fill="#0d6efd"/>
  <rect x="445.36702" y="83" width="8" height="11" fill="#0d6efd"/>
  <rect x="459.36702" y="83" width="8" height="11" fill="#0d6efd"/>
  <rect x="473.36702" y="83" width="8" height="11" fill="#0d6efd"/>
  <rect x="517.36702" y="66" width="8" height="11" fill="#0d6efd"/>
  <rect x="531.36702" y="66" width="8" height="11" fill="#0d6efd"/>
  <rect x="545.36702" y="66" width="8" height="11" fill="#0d6efd"/>
  <rect x="559.36702" y="66" width="8" height="11" fill="#0d6efd"/>
  <rect x="573.36702" y="66" width="8" height="11" fill="#0d6efd"/>
  <rect x="587.36702" y="66" width="8" height="11" fill="#0d6efd"/>
  <rect x="601.36702" y="66" width="8" height="11" fill="#0d6efd"/>
  <rect x="517.36702" y="83" width="8" height="11" fill="#0d6efd"/>
  <rect x="531.36702" y="83" width="8" height="11" fill="#0d6efd"/>
  <rect x="545.36702" y="83" width="8" height="11" fill="#0d6efd"/>
  <rect x="559.36702" y="83" width="8" height="11" fill="#0d6efd"/>
  <rect x="573.36702" y="83" width="8" height="11" fill="#0d6efd"/>
  <rect x="587.36702" y="83" width="8" height="11" fill="#0d6efd"/>
  <rect x="601.36702" y="83" width="8" height="11" fill="#0d6efd"/>
  <rect x="517.36702" y="30" width="92" height="5" fill="#0d6efd"/>
  <rect x="632.36702" y="3" width="19" height="32" fill="#0d6efd"/>
  <rect x="632.36702" y="44" width="19" height="32" fill="#0d6efd"/>
</svg>
